<svg width="32.000000" height="32.000000" viewBox="0 0 32 32" fill="none" xmlns="http://www.w3.org/2000/svg" xmlns:xlink="http://www.w3.org/1999/xlink">
	<desc>
			Created with Pixso.
	</desc>
	<defs>
		<filter id="filter_2207_183_dd" x="0.000000" y="0.000000" width="32.000000" height="31.400391" filterUnits="userSpaceOnUse" color-interpolation-filters="sRGB">
			<feFlood flood-opacity="0" result="BackgroundImageFix"/>
			<feColorMatrix in="SourceAlpha" type="matrix" values="0 0 0 0 0 0 0 0 0 0 0 0 0 0 0 0 0 0 127 0" result="hardAlpha"/>
			<feOffset dx="0" dy="4"/>
			<feGaussianBlur stdDeviation="1.33333"/>
			<feComposite in2="hardAlpha" operator="out" k2="-1" k3="1"/>
			<feColorMatrix type="matrix" values="0 0 0 0 0 0 0 0 0 0 0 0 0 0 0 0 0 0 0.25 0"/>
			<feBlend mode="normal" in2="BackgroundImageFix" result="effect_dropShadow_1"/>
			<feBlend mode="normal" in="SourceGraphic" in2="effect_dropShadow_1" result="shape"/>
		</filter>
	</defs>
	<g filter="url(#filter_2207_183_dd)">
		<path d="M12.02 18.84C12.02 18.93 11.91 19.01 11.77 19.01C11.61 19.03 11.5 18.95 11.5 18.84C11.5 18.74 11.61 18.66 11.75 18.66C11.9 18.65 12.02 18.73 12.02 18.84ZM10.52 18.62C10.48 18.72 10.58 18.83 10.73 18.86C10.85 18.9 11 18.86 11.03 18.76C11.05 18.66 10.96 18.55 10.82 18.51C10.69 18.47 10.55 18.52 10.52 18.62ZM12.66 18.54C12.52 18.57 12.42 18.66 12.43 18.77C12.45 18.87 12.57 18.93 12.72 18.9C12.86 18.87 12.96 18.77 12.94 18.68C12.93 18.59 12.8 18.52 12.66 18.54ZM15.84 0C9.13 0 4 5.09 4 11.8C4 17.17 7.37 21.76 12.2 23.38C12.82 23.49 13.03 23.1 13.03 22.79C13.03 22.49 13.02 20.84 13.02 19.82C13.02 19.82 9.63 20.55 8.92 18.38C8.92 18.38 8.37 16.97 7.58 16.61C7.58 16.61 6.47 15.85 7.65 15.86C7.65 15.86 8.86 15.96 9.52 17.11C10.58 18.98 12.36 18.44 13.05 18.12C13.16 17.35 13.47 16.81 13.82 16.49C11.12 16.19 8.39 15.8 8.39 11.14C8.39 9.81 8.76 9.15 9.53 8.29C9.4 7.98 8.99 6.68 9.66 5.01C10.67 4.69 13 6.31 13 6.31C13.96 6.04 15 5.9 16.03 5.9C17.06 5.9 18.1 6.04 19.07 6.31C19.07 6.31 21.4 4.69 22.41 5.01C23.07 6.69 22.66 7.98 22.54 8.29C23.31 9.15 23.79 9.82 23.79 11.14C23.79 15.81 20.94 16.19 18.23 16.49C18.68 16.87 19.05 17.6 19.05 18.74C19.05 20.37 19.04 22.38 19.04 22.78C19.04 23.1 19.26 23.48 19.88 23.37C24.71 21.76 28 17.17 28 11.8C28 5.09 22.55 0 15.84 0ZM8.7 16.68C8.64 16.73 8.65 16.84 8.73 16.94C8.81 17.01 8.92 17.05 8.98 16.98C9.05 16.94 9.03 16.82 8.95 16.73C8.87 16.65 8.76 16.62 8.7 16.68ZM8.18 16.29C8.14 16.35 8.19 16.43 8.29 16.48C8.36 16.53 8.46 16.51 8.5 16.45C8.53 16.38 8.48 16.31 8.38 16.26C8.29 16.23 8.21 16.24 8.18 16.29ZM9.74 18.01C9.67 18.08 9.7 18.22 9.81 18.31C9.92 18.43 10.06 18.44 10.12 18.36C10.18 18.3 10.15 18.15 10.06 18.06C9.95 17.95 9.81 17.94 9.74 18.01ZM9.19 17.3C9.11 17.35 9.11 17.48 9.19 17.59C9.27 17.7 9.4 17.75 9.46 17.7C9.54 17.64 9.54 17.51 9.46 17.4C9.39 17.29 9.27 17.24 9.19 17.3Z" fill="#000000" fill-opacity="1.000000" fill-rule="nonzero"/>
	</g>
</svg>
